<svg xmlns="http://www.w3.org/2000/svg" width="323" height="227" viewBox="0 0 323 227"><defs><mask id="4asab" width="2" height="2" x="-1" y="-1"><path fill="#fff" d="M11 6h297v193H11z"/><path d="M155.595 96.216h20.17c9.556 0 14.802-3.668 18.414-8.977 1.914-2.815 3.66-18.64 0-27.576-3.125-7.629-12.658-9.182-14.922-9.182h-14.952l-46.056.546L85 6h137.597c21.772 0 36.984 35.182 36.98 53.663-.005 18.481-23.303 48.357-23.303 48.357L308 199h-81.81zM11 199L51.577 6l20.66.23 95.091 127.168L214 198.996l-80.842-.491-42.334-69.826L79.2 105.477l-6.657 93.153z"/></mask><filter id="4asaa" width="325" height="239" x="-3" y="-8" filterUnits="userSpaceOnUse"><feOffset dy="18" in="SourceGraphic" result="FeOffset1023Out"/><feGaussianBlur in="FeOffset1023Out" result="FeGaussianBlur1024Out" stdDeviation="1.6 1.6"/></filter><radialGradient id="4asac" cx="81.82" cy="125.62" r="260.21" gradientUnits="userSpaceOnUse"><stop offset="0" stop-color="#b1057a"/><stop offset=".33" stop-color="#bf1865"/><stop offset=".67" stop-color="#ff6a0a"/><stop offset=".79" stop-color="#d00438"/><stop offset="1" stop-color="#dc5200"/></radialGradient></defs><g><g><g filter="url(#4asaa)"><path fill="none" d="M155.595 96.216h20.17c9.556 0 14.802-3.668 18.414-8.977 1.914-2.815 3.66-18.64 0-27.576-3.125-7.629-12.658-9.182-14.922-9.182h-14.952l-46.056.546L85 6h137.597c21.772 0 36.984 35.182 36.98 53.663-.005 18.481-23.303 48.357-23.303 48.357L308 199h-81.81zM11 199L51.577 6l20.66.23 95.091 127.168L214 198.996l-80.842-.491-42.334-69.826L79.2 105.477l-6.657 93.153z" mask="url(&quot;#4asab&quot;)"/><path fill-opacity=".5" d="M155.595 96.216h20.17c9.556 0 14.802-3.668 18.414-8.977 1.914-2.815 3.66-18.64 0-27.576-3.125-7.629-12.658-9.182-14.922-9.182h-14.952l-46.056.546L85 6h137.597c21.772 0 36.984 35.182 36.98 53.663-.005 18.481-23.303 48.357-23.303 48.357L308 199h-81.81zM11 199L51.577 6l20.66.23 95.091 127.168L214 198.996l-80.842-.491-42.334-69.826L79.2 105.477l-6.657 93.153z"/></g><path fill="url(#4asac)" d="M155.595 96.216h20.17c9.556 0 14.802-3.668 18.414-8.977 1.914-2.815 3.66-18.64 0-27.576-3.125-7.629-12.658-9.182-14.922-9.182h-14.952l-46.056.546L85 6h137.597c21.772 0 36.984 35.182 36.98 53.663-.005 18.481-23.303 48.357-23.303 48.357L308 199h-81.81zM11 199L51.577 6l20.66.23 95.091 127.168L214 198.996l-80.842-.491-42.334-69.826L79.2 105.477l-6.657 93.153z"/><path fill="none" stroke="#000" stroke-miterlimit="20" stroke-width="12" d="M155.595 96.216h20.17c9.556 0 14.802-3.668 18.414-8.977 1.914-2.815 3.66-18.64 0-27.576-3.125-7.629-12.658-9.182-14.922-9.182h-14.952l-46.056.546L85 6h137.597c21.772 0 36.984 35.182 36.98 53.663-.005 18.481-23.303 48.357-23.303 48.357L308 199h-81.81zM11 199L51.577 6l20.66.23 95.091 127.168L214 198.996l-80.842-.491-42.334-69.826L79.2 105.477l-6.657 93.153z"/></g></g></svg>